<?xml version="1.0" encoding="UTF-8"?>
<svg version="1.1" xmlns="http://www.w3.org/2000/svg" width="500" height="500">
<path d="M0 0 C0.9075 0.00257813 1.815 0.00515625 2.75 0.0078125 C4.11125 0.00394531 4.11125 0.00394531 5.5 0 C7.75 0.1328125 7.75 0.1328125 8.75 1.1328125 C8.84492722 3.47535032 8.87559791 5.78827354 8.86352539 8.13110352 C8.86367142 8.86276733 8.86381744 9.59443115 8.8639679 10.3482666 C8.86326867 12.77778034 8.85547585 15.20721833 8.84765625 17.63671875 C8.8457921 19.31680764 8.84436819 20.99689707 8.84336853 22.67698669 C8.83954307 27.10754893 8.82971256 31.5380786 8.81866455 35.96862793 C8.80665655 41.27996904 8.80204832 46.59132102 8.79621124 51.90267181 C8.78650081 59.97940806 8.76734447 68.05607277 8.75 76.1328125 C33.17 76.1328125 57.59 76.1328125 82.75 76.1328125 C84.10015859 80.18328826 83.37084998 82.9248293 82.75 87.1328125 C78.71486295 88.0935282 74.95047962 88.25951212 70.80761719 88.26220703 C69.78945168 88.26483551 69.78945168 88.26483551 68.75071716 88.26751709 C66.51607676 88.27190273 64.28151615 88.26900789 62.046875 88.265625 C60.48374415 88.2662993 58.9206134 88.26727037 57.35748291 88.26852417 C54.08255006 88.26999696 50.80764452 88.2678612 47.53271484 88.26318359 C43.35574526 88.25750547 39.1788402 88.26075578 35.00187302 88.26675606 C31.77261886 88.27038915 28.5433797 88.26921019 25.31412506 88.26662827 C23.77530154 88.2659656 22.23647661 88.2667641 20.69765472 88.26910782 C12.98683408 88.27827032 5.39884728 88.21188076 -2.25 87.1328125 C-3.00673688 81.75361462 -3.39513621 76.51636945 -3.37939453 71.08032227 C-3.38114685 70.31998184 -3.38289917 69.55964142 -3.38470459 68.77626038 C-3.38906508 66.29222251 -3.38620784 63.80825719 -3.3828125 61.32421875 C-3.38348672 59.58926886 -3.38445773 57.85431907 -3.38571167 56.11936951 C-3.38718034 52.49924818 -3.38505903 48.87915164 -3.38037109 45.2590332 C-3.37464434 40.60942164 -3.37797655 35.95986743 -3.38394356 31.31025791 C-3.3875462 27.73562685 -3.38641248 24.16100955 -3.38381577 20.5863781 C-3.38314721 18.87068614 -3.38397243 17.15499296 -3.38629532 15.43930244 C-3.38882018 13.05268122 -3.38498503 10.66615511 -3.37939453 8.27954102 C-3.38243088 7.20975006 -3.38243088 7.20975006 -3.38552856 6.11834717 C-3.35969201 0.19831515 -3.35969201 0.19831515 0 0 Z " fill="#E5E5E5" transform="translate(85.25,233.8671875)"/>
<path d="M0 0 C1.27580429 -0.00315216 2.55160858 -0.00630432 3.86607361 -0.009552 C5.25389643 -0.00776026 6.64171893 -0.00570882 8.02954102 -0.00341797 C9.46859249 -0.00409272 10.90764386 -0.00506418 12.34669495 -0.00631714 C15.36525557 -0.00779028 18.38378658 -0.00565472 21.40234375 -0.00097656 C25.23131183 0.00467431 29.06020908 0.00146904 32.88917446 -0.00454903 C35.86557016 -0.00820472 38.84194977 -0.00699259 41.81834602 -0.00442123 C43.22743806 -0.0037633 44.63653166 -0.00453975 46.04562187 -0.00690079 C55.28446305 -0.01896877 64.39198162 0.34532921 73.59594727 1.12939453 C74.80880322 10.41570575 74.63016639 19.61133625 74.47485352 28.94970703 C74.45050793 30.6617667 74.42666672 32.37383361 74.40330505 34.08590698 C74.34090518 38.56079446 74.27171714 43.03555141 74.2010498 47.51031494 C74.12996438 52.08901091 74.06538926 56.66779837 74.00024414 61.24658203 C73.87180148 70.20762012 73.73617766 79.16853369 73.59594727 88.12939453 C72.13771515 88.15639883 70.67934051 88.1757924 69.22094727 88.19189453 C68.40883789 88.20349609 67.59672852 88.21509766 66.76000977 88.22705078 C64.59594727 88.12939453 64.59594727 88.12939453 62.59594727 87.12939453 C62.59594727 62.37939453 62.59594727 37.62939453 62.59594727 12.12939453 C38.17594727 12.12939453 13.75594727 12.12939453 -11.40405273 12.12939453 C-11.40405273 8.49939453 -11.40405273 4.86939453 -11.40405273 1.12939453 C-7.32241562 0.31306711 -4.10486115 0.0029181 0 0 Z " fill="#E7E7E7" transform="translate(343.404052734375,177.87060546875)"/>
<path d="M0 0 C1.16595703 0.48146484 1.16595703 0.48146484 2.35546875 0.97265625 C5.68455772 3.05234841 6.93981075 6.33375896 8 10 C8.4056416 16.66950254 7.42072003 21.82144226 3 27 C1.67395912 28.34058612 0.34174528 29.67513202 -1 31 C0.12369879 33.58390632 1.24890752 36.16713708 2.375 38.75 C2.85066406 39.84441406 2.85066406 39.84441406 3.3359375 40.9609375 C3.6453125 41.66992188 3.9546875 42.37890625 4.2734375 43.109375 C4.55622559 43.75874023 4.83901367 44.40810547 5.13037109 45.07714844 C5.74064077 46.4265263 6.4052876 47.75198801 7.10791016 49.05566406 C8 51 8 51 8 54 C6.39679026 54.19551338 4.79237014 54.38111983 3.1875 54.5625 C1.84751953 54.71912109 1.84751953 54.71912109 0.48046875 54.87890625 C-2 55 -2 55 -5 54 C-6.08740234 52.06640625 -6.08740234 52.06640625 -7.0859375 49.5625 C-7.64667969 48.22058594 -7.64667969 48.22058594 -8.21875 46.8515625 C-8.98848503 44.95322949 -9.75153454 43.05217169 -10.5078125 41.1484375 C-10.88421875 40.25382812 -11.260625 39.35921875 -11.6484375 38.4375 C-11.98020996 37.61121094 -12.31198242 36.78492188 -12.65380859 35.93359375 C-14.10052358 33.37955807 -14.10052358 33.37955807 -19 33 C-19 39.93 -19 46.86 -19 54 C-22 55 -22 55 -31 54 C-31 43.11 -31 32.22 -31 21 C-28.22355465 20.07451822 -26.78253273 19.91011119 -23.9453125 20.0078125 C-23.16542969 20.02457031 -22.38554687 20.04132813 -21.58203125 20.05859375 C-19.95158651 20.10265982 -18.321336 20.15466978 -16.69140625 20.21484375 C-11.90980995 20.30149541 -8.93988119 20.04662877 -5 17 C-5.34227572 14.02934491 -5.34227572 14.02934491 -6 11 C-8.51677113 9.74161443 -10.41293288 9.79181027 -13.2265625 9.68359375 C-14.2578125 9.64169922 -15.2890625 9.59980469 -16.3515625 9.55664062 C-17.43179687 9.51732422 -18.51203125 9.47800781 -19.625 9.4375 C-20.71296875 9.39431641 -21.8009375 9.35113281 -22.921875 9.30664062 C-25.6144257 9.20035573 -28.30719576 9.09965496 -31 9 C-31 5.37 -31 1.74 -31 -2 C-27.33368713 -2.25024997 -23.66857304 -2.47576583 -20 -2.6875 C-18.45505859 -2.79674805 -18.45505859 -2.79674805 -16.87890625 -2.90820312 C-10.36619385 -3.2608022 -5.91616799 -2.77980661 0 0 Z " fill="#EDEDED" transform="translate(301,224)"/>
<path d="M0 0 C0 18.48 0 36.96 0 56 C-3.96 56 -7.92 56 -12 56 C-13.125 49.375 -13.125 49.375 -12 46 C-12.99 46.495 -12.99 46.495 -14 47 C-16.28996786 47.09756755 -18.58295953 47.12976516 -20.875 47.125 C-22.10992187 47.12757813 -23.34484375 47.13015625 -24.6171875 47.1328125 C-28 47 -28 47 -32 46 C-32 49.3 -32 52.6 -32 56 C-35.96 56 -39.92 56 -44 56 C-45.49538962 49.02151509 -44.85029818 42.04802712 -44 35 C-43 34 -43 34 -40.24023438 33.90234375 C-39.03689453 33.91394531 -37.83355469 33.92554688 -36.59375 33.9375 C-35.29308594 33.94523437 -33.99242187 33.95296875 -32.65234375 33.9609375 C-30.571765 33.9796504 -28.49120713 34.00008631 -26.41064453 34.02050781 C-24.40921169 34.03850887 -22.4077284 34.05059825 -20.40625 34.0625 C-19.20291016 34.07410156 -17.99957031 34.08570313 -16.75976562 34.09765625 C-14.08989023 34.31710979 -14.08989023 34.31710979 -13 33 C-12.84019563 30.55391002 -12.74070553 28.13268942 -12.68359375 25.68359375 C-12.66281265 24.95253922 -12.64203156 24.22148468 -12.62062073 23.46827698 C-12.55504976 21.12478344 -12.49620568 18.78117461 -12.4375 16.4375 C-12.39432192 14.85220145 -12.35070787 13.26691471 -12.30664062 11.68164062 C-12.1993608 7.78787963 -12.0981151 3.89400228 -12 0 C-10.56359829 -0.19573608 -9.12580496 -0.38127816 -7.6875 -0.5625 C-6.88699219 -0.66691406 -6.08648437 -0.77132812 -5.26171875 -0.87890625 C-3 -1 -3 -1 0 0 Z " fill="#E7E7E7" transform="translate(207,222)"/>
<path d="M0 0 C0.99 0.33 1.98 0.66 3 1 C4.09448242 3.1965332 4.09448242 3.1965332 5.16796875 6.23828125 C5.59770996 7.41729004 6.02745117 8.59629883 6.47021484 9.81103516 C6.71028259 10.47524475 6.95035034 11.13945435 7.19769287 11.8237915 C8.72462984 15.96551366 10.36644324 20.06271319 11.98828125 24.16796875 C12.70160819 25.9848548 13.41449336 27.80191435 14.12695312 29.61914062 C15.22917122 32.42881816 16.33242259 35.23806875 17.4387207 38.04614258 C18.52084642 40.79387695 19.59871064 43.54324964 20.67578125 46.29296875 C21.01007645 47.13868942 21.34437164 47.9844101 21.688797 48.85575867 C21.99299057 49.63449844 22.29718414 50.41323822 22.6105957 51.21557617 C22.87975296 51.90028488 23.14891022 52.58499359 23.42622375 53.29045105 C24 55 24 55 24 57 C22.23303157 57.27599507 20.46103785 57.51996915 18.6875 57.75 C17.70136719 57.88921875 16.71523437 58.0284375 15.69921875 58.171875 C13 58 13 58 11.45898438 56.328125 C9.87010366 53.7927223 8.91703759 51.4109306 7.95703125 48.578125 C7.60576172 47.55332031 7.25449219 46.52851563 6.89257812 45.47265625 C6.53615234 44.40917969 6.17972656 43.34570312 5.8125 42.25 C5.44447266 41.17105469 5.07644531 40.09210938 4.69726562 38.98046875 C3.79165719 36.3224492 2.89283921 33.66233036 2 31 C-0.95666477 32.47833239 -1.03903336 34.44394647 -2.09375 37.53125 C-2.48433594 38.65144531 -2.87492187 39.77164063 -3.27734375 40.92578125 C-3.68082031 42.10527344 -4.08429688 43.28476562 -4.5 44.5 C-5.29540084 46.82521333 -6.0971519 49.14826734 -6.90625 51.46875 C-7.26009766 52.50451172 -7.61394531 53.54027344 -7.97851562 54.60742188 C-9 57 -9 57 -11 58 C-12.71233688 57.9129796 -14.42175406 57.75902838 -16.125 57.5625 C-17.03507813 57.46066406 -17.94515625 57.35882813 -18.8828125 57.25390625 C-19.58148438 57.17011719 -20.28015625 57.08632813 -21 57 C-20.25394311 51.96235188 -18.36499425 47.3999816 -16.54296875 42.67578125 C-16.19873367 41.77433884 -15.8544986 40.87289642 -15.49983215 39.94413757 C-14.39941505 37.06549568 -13.2934467 34.18902135 -12.1875 31.3125 C-11.45473247 29.39661654 -10.72230704 27.4806022 -9.99023438 25.56445312 C-6.71991637 17.0181087 -3.41813557 8.48852401 0 0 Z " fill="#E7E7E7" transform="translate(237,221)"/>
<path d="M0 0 C0 15.51 0 31.02 0 47 C1.98 47 3.96 47 6 47 C6.19412181 48.47831221 6.38012131 49.95769316 6.5625 51.4375 C6.66691406 52.26121094 6.77132813 53.08492188 6.87890625 53.93359375 C6.91886719 54.61550781 6.95882813 55.29742187 7 56 C6 57 6 57 3.68334961 57.11352539 C2.68311768 57.10828857 1.68288574 57.10305176 0.65234375 57.09765625 C-0.42724609 57.09443359 -1.50683594 57.09121094 -2.61914062 57.08789062 C-3.75544922 57.07951172 -4.89175781 57.07113281 -6.0625 57.0625 C-7.20267578 57.05798828 -8.34285156 57.05347656 -9.51757812 57.04882812 C-12.34510351 57.03699747 -15.1725264 57.0205141 -18 57 C-18 53.7 -18 50.4 -18 47 C-16.02 47 -14.04 47 -12 47 C-12 31.82 -12 16.64 -12 1 C-3 0 -3 0 0 0 Z " fill="#ECECEC" transform="translate(336,221)"/>
<path d="M0 0 C0 8.25 0 16.5 0 25 C-3.96 25 -7.92 25 -12 25 C-12.8916376 19.18784382 -13.00380742 13.853664 -12.5625 8 C-12.51029297 7.22527344 -12.45808594 6.45054687 -12.40429688 5.65234375 C-12.27633098 3.76775513 -12.13914404 1.88379629 -12 0 C-10.56359829 -0.19573608 -9.12580496 -0.38127816 -7.6875 -0.5625 C-6.88699219 -0.66691406 -6.08648437 -0.77132812 -5.26171875 -0.87890625 C-3 -1 -3 -1 0 0 Z " fill="#E2E2E2" transform="translate(175,222)"/>
</svg>
